<svg xmlns="http://www.w3.org/2000/svg" xmlns:xlink="http://www.w3.org/1999/xlink" xmlns:sketch="http://www.bohemiancoding.com/sketch/ns" width="181px" height="201px" viewBox="0 0 181 201" version="1.1"><style>.style0{fill:	none;fill-rule:	evenodd;}.style1{fill:	#4A4A4A;}.style2{stroke:	#979797;stroke-opacity:	0.14;fill:	#414141;}.style3{stroke:	#B8E986;stroke-width:	7;}.style4{fill:	#343434;}.style5{stroke:	#B8E986;stroke-width:	11;fill:	#3E3E3E;}.style6{stroke:	#B8E986;stroke-width:	2;fill:	#4A4A4A;}.style7{stroke:	#979797;stroke-opacity:	0.138671875;fill:	#414141;}.style8{stroke:	#979797;stroke-opacity:	0.273494112;fill:	#FFFABC;}</style><!-- Generator: Sketch 3.0.2 (7799) - http://www.bohemiancoding.com/sketch --><title>katzninja</title><description>Created with Sketch.</description><defs/><g id="Page-1" sketch:type="MSPage" class="style0"><path d="M37.3286438 131 L22.750473 150.2 L17.4360657 149.1 L10.5290985 125.1 L6.80084229 19.5 L50.7228088 49.3 L83.7419891 39.5 L107.583923 40.8 L130.892334 46.9 L172.419052 14.7 L173.479691 72.4 L177.382584 110.7 L177.238388 128.5 L173.414001 140 L152.465591 125.1 L133.575974 145.3 L109.761276 125.1 L76.1316681 123.2 L64.4550323 140 L37.3286438 131 Z" id="Path-1" sketch:type="MSShapeGroup" class="style1"/><path d="M22.4885779 43.2 C19.2739443 40.1 17.1 41.2 17.6 45.6 L19.6925866 63.6 C20.205981 68 23.4 69.3 26.9 66.6 L32.8456524 62 C36.3334106 59.3 36.3 55 32.7 52.3 L36.8341827 55.4 C33.276764 52.8 27.8 48.2 24.6 45.1 L22.4885779 43.2 Z" id="Rectangle-1" sketch:type="MSShapeGroup" class="style2"/><path d="M158.022873 39.5 C161.256531 36.5 163.6 37.6 163.2 42 L161.742711 58.7 C161.362132 63.1 158.2 64.4 154.7 61.7 L148.830129 57.1 C145.342371 54.4 145.4 50.1 149 47.5 L144.841599 50.5 C148.399017 47.9 153.9 43.3 157.1 40.3 L158.022873 39.5 Z" id="Rectangle-2" sketch:type="MSShapeGroup" class="style2"/><path d="M93.7988281 194.8 C139.896267 194.8 177.3 160.1 177.3 117.3 C177.265625 106.4 172.1 88.5 171.8 70.3 C171.344544 40 175.6 9 175.6 9 C175.623398 9 131.6 48.2 130.3 47.5 C119.253482 42.6 106.9 39.8 93.8 39.8 C78.7322991 39.8 64.6 43.5 52.4 50 C47.9246563 52.3 5.1 14.8 5.1 14.8 C5.12176514 14.8 10.6 49.4 11 78.5 C11.3266144 97.5 7.5 114.1 7.5 117.3 C7.4609375 160.1 47.7 194.8 93.8 194.8 Z" id="Oval-1" sketch:type="MSShapeGroup" class="style3"/><path d="M35.4307783 94.8 C34.0188939 94.9 31.3 97.8 31.4 101.3 C31.5896711 107 35.4 114.4 35.4 114.4 C35.4307783 114.4 38.1 121.9 35.4 130.8 C32.770566 139.6 156.6 127.1 156.6 127.1 C156.645972 127.1 150.4 108.4 157.5 94.8 C163.703095 82.9 60.8 92.3 35.4 94.8 Z" id="Path-3" sketch:type="MSShapeGroup" class="style4"/><path d="M97.9003906 194.8 C137.778473 194.8 164 166.4 170.7 146.8 C177.437057 127.2 137.7 116.9 97.9 116.9 C58.1455968 116.9 16.7 136.3 24.3 156.2 C31.8700409 176.2 58 194.8 97.9 194.8 Z" id="Oval-2" sketch:type="MSShapeGroup" class="style5"/><path d="M95.2494675 143.2 L104.005204 161.4 C104.005204 161.4 91.8 191.3 98.7 191.3 C135.708259 191.3 160 164.9 166.3 146.7 C172.556219 128.4 135.6 118.9 98.7 118.9 L95.2494675 143.2 Z" id="Oval-7" sketch:type="MSShapeGroup" class="style6"/><path d="M62.6290033 76.9 C74.4328184 75.4 85.2 83.8 84.5 78.3 C83.8231535 72.8 73.7 69.5 61.9 71 C50.0983487 72.4 41.1 78.1 41.8 83.6 C42.4304622 89.1 50.8 78.3 62.6 76.9 Z" id="Oval-3" sketch:type="MSShapeGroup" class="style7"/><path d="M128.660059 77.3 C116.856244 75.9 106.1 84.2 106.8 78.7 C107.465909 73.2 117.6 69.9 129.4 71.4 C141.190714 72.8 150.2 78.5 149.5 84 C148.8586 89.5 140.5 78.8 128.7 77.3 Z" id="Oval-4" sketch:type="MSShapeGroup" class="style7"/><path d="M145.41523 102.8 C145.810618 101.3 142.2 99 142.2 99 C142.190455 99 133.5 97.4 128.5 97.7 C117.880352 98.4 109.9 101.4 110.7 102.8 C111.436399 104.3 119.4 106 128.5 106.7 C137.517953 107.4 144.7 105.7 145.4 102.8 Z" id="Oval-5" sketch:type="MSShapeGroup" class="style8"/><path d="M84.1601568 103.8 C84.1601572 102.1 76.4 100.1 66.7 99.5 C57.1012857 98.8 49.3 100.8 49.3 103.8 C49.2968747 106.9 57.1 108.8 66.7 108.2 C76.3557449 107.5 84.2 105.6 84.2 103.8 Z" id="Oval-6" sketch:type="MSShapeGroup" class="style8"/></g></svg>