<?xml version="1.0" encoding="UTF-8" standalone="no"?>
<svg width="180px" height="196px" viewBox="0 0 180 196" version="1.1" xmlns="http://www.w3.org/2000/svg" xmlns:xlink="http://www.w3.org/1999/xlink" xmlns:sketch="http://www.bohemiancoding.com/sketch/ns">
    <!-- Generator: Sketch 3.0.2 (7799) - http://www.bohemiancoding.com/sketch -->
    <title>katzninja</title>
    <description>Created with Sketch.</description>
    <defs></defs>
    <g id="Page-1" stroke="none" stroke-width="1" fill="none" fill-rule="evenodd" sketch:type="MSPage">
        <path d="M36.3286438,125.965408 L21.750473,145.22673 L16.4360657,144.138855 L9.52909851,120.096649 L5.80084229,14.52948 L49.7228088,44.2610016 L82.7419891,34.5486298 L106.583923,35.8367767 L129.892334,41.8657532 L171.419052,9.70373535 L172.479691,67.4059906 L176.382584,105.720352 L176.238388,123.466019 L172.414001,135.038513 L151.465591,120.096649 L132.575974,140.333694 L108.761276,120.096649 L75.1316681,118.247742 L63.4550323,135.038513 L36.3286438,125.965408 Z" id="Path-1" fill="#4A4A4A" sketch:type="MSShapeGroup"></path>
        <path d="M26.4878172,43.8892128 C22.6960246,41.6142908 19.6221693,43.3493765 19.6221693,47.7765357 L19.6221693,58.509238 C19.6221693,62.9310691 22.4478713,64.3184188 25.9373141,61.6050443 L31.8456524,57.010748 C35.3334106,54.2986835 35.2777178,49.9733064 31.7195207,47.3484653 L35.8341827,50.3838041 C32.276764,47.7595372 26.3281921,43.7934442 22.5272584,41.5130379 L26.4878172,43.8892128 Z" id="Rectangle-1" stroke-opacity="0.14" stroke="#979797" fill="#414141" sketch:type="MSShapeGroup"></path>
        <path d="M153.187964,39.0181191 C156.979757,36.7431971 160.053612,38.4782828 160.053612,42.9054419 L160.053612,53.6381442 C160.053612,58.0599754 157.22791,59.4473251 153.738467,56.7339506 L147.830129,52.1396542 C144.342371,49.4275897 144.398063,45.1022126 147.956261,42.4773716 L143.841599,45.5127104 C147.399017,42.8884435 153.347589,38.9223505 157.148523,36.6419442 L153.187964,39.0181191 Z" id="Rectangle-2" stroke-opacity="0.14" stroke="#979797" fill="#414141" sketch:type="MSShapeGroup"></path>
        <path d="M92.7988281,189.800781 C138.896267,189.800781 176.265625,155.094105 176.265625,112.28125 C176.265625,101.370375 171.113726,83.4664111 170.825855,65.3320483 C170.344544,35.0120915 174.623398,4.04806519 174.623398,4.04806519 C174.623398,4.04806519 130.645155,43.155557 129.272853,42.5353779 C118.253482,37.5554375 105.877439,34.7617188 92.7988281,34.7617188 C77.7322991,34.7617188 63.5981472,38.4692588 51.3963761,44.9555886 C46.9246563,47.3327066 4.12176514,9.79025269 4.12176514,9.79025269 C4.12176514,9.79025269 9.60126036,44.4220479 10.0407619,73.5331136 C10.3266144,92.4669928 6.4609375,109.065482 6.4609375,112.28125 C6.4609375,155.094105 46.7013891,189.800781 92.7988281,189.800781 Z" id="Oval-1" stroke="#B8E986" stroke-width="7" sketch:type="MSShapeGroup"></path>
        <path d="M34.4307783,89.801981 C33.0188939,89.9389433 30.2751106,92.8002966 30.3941956,96.2851563 C30.5896711,102.005473 34.4307783,109.430985 34.4307783,109.430985 C34.4307783,109.430985 37.0909907,116.905291 34.4307783,125.769739 C31.770566,134.634186 155.645972,122.121216 155.645972,122.121216 C155.645972,122.121216 149.373729,103.445505 156.494537,89.8019809 C162.703095,77.9063339 59.812615,87.3397726 34.4307783,89.801981 Z" id="Path-3" fill="#F2E4C3" sketch:type="MSShapeGroup"></path>
        <path d="M96.9003906,189.800781 C136.778473,189.800781 162.969193,161.445526 169.703125,141.8125 C176.437057,122.179474 136.655184,111.871094 96.9003906,111.871094 C57.1455968,111.871094 15.6846466,131.279816 23.2773438,151.246094 C30.8700409,171.212372 57.0223083,189.800781 96.9003906,189.800781 Z" id="Oval-2" stroke="#B8E986" stroke-width="11" fill="#3E3E3E" sketch:type="MSShapeGroup"></path>
        <path d="M94.2494675,138.247863 L103.005204,156.363342 C103.005204,156.363342 90.7882906,186.277863 97.6563579,186.277863 C134.708259,186.277863 159.042828,159.93216 165.299523,141.690536 C171.556219,123.448913 134.593708,113.871094 97.6563579,113.871094 L94.2494675,138.247863 Z" id="Oval-7" stroke="#B8E986" stroke-width="2" fill="#4A4A4A" sketch:type="MSShapeGroup"></path>
        <path d="M61.6290033,71.8975568 C73.4328184,70.4482305 84.175858,78.8360592 83.4995057,73.3276121 C82.8231535,67.8191651 72.7059789,64.5285975 60.9021638,65.9779238 C49.0983487,67.42725 40.0777577,73.0676397 40.75411,78.5760868 C41.4304622,84.0845338 49.8251882,73.3468831 61.6290033,71.8975568 Z" id="Oval-3" stroke-opacity="0.138671875" stroke="#979797" fill="#414141" sketch:type="MSShapeGroup"></path>
        <path d="M127.660059,72.307713 C115.856244,70.8583868 105.113204,79.2462154 105.789557,73.7377684 C106.465909,68.2293213 116.583084,64.9387538 128.386899,66.38808 C140.190714,67.8374063 149.211305,73.477796 148.534953,78.986243 C147.8586,84.4946901 139.463874,73.7570393 127.660059,72.307713 Z" id="Oval-4" stroke-opacity="0.138671875" stroke="#979797" fill="#414141" sketch:type="MSShapeGroup"></path>
        <path d="M144.41523,101.822266 C144.810618,100.345043 141.190455,97.9762497 141.190455,97.9762497 C141.190455,97.9762497 132.515822,96.3844242 127.457031,96.7145386 C116.880352,97.404726 108.920641,100.371102 109.67852,101.822266 C110.436399,103.273429 118.39611,105.009337 127.457031,105.699524 C136.517953,106.389711 143.657351,104.653804 144.41523,101.822266 Z" id="Oval-5" stroke-opacity="0.273494112" stroke="#979797" fill="#D8D8D8" sketch:type="MSShapeGroup"></path>
        <path d="M83.1601568,101.822266 C83.1601572,100.071136 75.3557456,98.1218268 65.7285156,97.4683609 C56.1012857,96.814895 48.2968741,98.7642046 48.2968744,101.822266 C48.2968747,104.880327 56.1012863,106.829636 65.7285156,106.17617 C75.3557449,105.522704 83.1601565,103.573395 83.1601568,101.822266 Z" id="Oval-6" stroke-opacity="0.273494112" stroke="#979797" fill="#D8D8D8" sketch:type="MSShapeGroup"></path>
    </g>
</svg>