<svg xmlns="http://www.w3.org/2000/svg" xmlns:xlink="http://www.w3.org/1999/xlink" xmlns:sketch="http://www.bohemiancoding.com/sketch/ns" width="180px" height="196px" viewBox="0 0 180 196" version="1.1"><style>.style0{fill:	none;fill-rule:	evenodd;}.style1{fill:	#4A4A4A;}.style2{stroke:	#979797;stroke-opacity:	0.14;fill:	#414141;}.style3{stroke:	#B8E986;stroke-width:	7;}.style4{fill:	#F2E4C3;}.style5{stroke:	#B8E986;stroke-width:	11;fill:	#3E3E3E;}.style6{stroke:	#B8E986;stroke-width:	2;fill:	#4A4A4A;}.style7{stroke:	#979797;stroke-opacity:	0.138671875;fill:	#414141;}.style8{stroke:	#979797;stroke-opacity:	0.273494112;fill:	#D8D8D8;}</style><!-- Generator: Sketch 3.0.2 (7799) - http://www.bohemiancoding.com/sketch --><title>katzninja</title><description>Created with Sketch.</description><defs/><g id="Page-1" sketch:type="MSPage" class="style0"><path d="M36.3286438 126 L21.750473 145.2 L16.4360657 144.1 L9.52909851 120.1 L5.80084229 14.5 L49.7228088 44.3 L82.7419891 34.5 L106.583923 35.8 L129.892334 41.9 L171.419052 9.7 L172.479691 67.4 L176.382584 105.7 L176.238388 123.5 L172.414001 135 L151.465591 120.1 L132.575974 140.3 L108.761276 120.1 L75.1316681 118.2 L63.4550323 135 L36.3286438 126 Z" id="Path-1" sketch:type="MSShapeGroup" class="style1"/><path d="M26.4878172 43.9 C22.6960246 41.6 19.6 43.3 19.6 47.8 L19.6221693 58.5 C19.6221693 62.9 22.4 64.3 25.9 61.6 L31.8456524 57 C35.3334106 54.3 35.3 50 31.7 47.3 L35.8341827 50.4 C32.276764 47.8 26.3 43.8 22.5 41.5 L26.4878172 43.9 Z" id="Rectangle-1" sketch:type="MSShapeGroup" class="style2"/><path d="M153.187964 39 C156.979757 36.7 160.1 38.5 160.1 42.9 L160.053612 53.6 C160.053612 58.1 157.2 59.4 153.7 56.7 L147.830129 52.1 C144.342371 49.4 144.4 45.1 148 42.5 L143.841599 45.5 C147.399017 42.9 153.3 38.9 157.1 36.6 L153.187964 39 Z" id="Rectangle-2" sketch:type="MSShapeGroup" class="style2"/><path d="M92.7988281 189.8 C138.896267 189.8 176.3 155.1 176.3 112.3 C176.265625 101.4 171.1 83.5 170.8 65.3 C170.344544 35 174.6 4 174.6 4 C174.623398 4 130.6 43.2 129.3 42.5 C118.253482 37.6 105.9 34.8 92.8 34.8 C77.7322991 34.8 63.6 38.5 51.4 45 C46.9246563 47.3 4.1 9.8 4.1 9.8 C4.12176514 9.8 9.6 44.4 10 73.5 C10.3266144 92.5 6.5 109.1 6.5 112.3 C6.4609375 155.1 46.7 189.8 92.8 189.8 Z" id="Oval-1" sketch:type="MSShapeGroup" class="style3"/><path d="M34.4307783 89.8 C33.0188939 89.9 30.3 92.8 30.4 96.3 C30.5896711 102 34.4 109.4 34.4 109.4 C34.4307783 109.4 37.1 116.9 34.4 125.8 C31.770566 134.6 155.6 122.1 155.6 122.1 C155.645972 122.1 149.4 103.4 156.5 89.8 C162.703095 77.9 59.8 87.3 34.4 89.8 Z" id="Path-3" sketch:type="MSShapeGroup" class="style4"/><path d="M96.9003906 189.8 C136.778473 189.8 163 161.4 169.7 141.8 C176.437057 122.2 136.7 111.9 96.9 111.9 C57.1455968 111.9 15.7 131.3 23.3 151.2 C30.8700409 171.2 57 189.8 96.9 189.8 Z" id="Oval-2" sketch:type="MSShapeGroup" class="style5"/><path d="M94.2494675 138.2 L103.005204 156.4 C103.005204 156.4 90.8 186.3 97.7 186.3 C134.708259 186.3 159 159.9 165.3 141.7 C171.556219 123.4 134.6 113.9 97.7 113.9 L94.2494675 138.2 Z" id="Oval-7" sketch:type="MSShapeGroup" class="style6"/><path d="M61.6290033 71.9 C73.4328184 70.4 84.2 78.8 83.5 73.3 C82.8231535 67.8 72.7 64.5 60.9 66 C49.0983487 67.4 40.1 73.1 40.8 78.6 C41.4304622 84.1 49.8 73.3 61.6 71.9 Z" id="Oval-3" sketch:type="MSShapeGroup" class="style7"/><path d="M127.660059 72.3 C115.856244 70.9 105.1 79.2 105.8 73.7 C106.465909 68.2 116.6 64.9 128.4 66.4 C140.190714 67.8 149.2 73.5 148.5 79 C147.8586 84.5 139.5 73.8 127.7 72.3 Z" id="Oval-4" sketch:type="MSShapeGroup" class="style7"/><path d="M144.41523 101.8 C144.810618 100.3 141.2 98 141.2 98 C141.190455 98 132.5 96.4 127.5 96.7 C116.880352 97.4 108.9 100.4 109.7 101.8 C110.436399 103.3 118.4 105 127.5 105.7 C136.517953 106.4 143.7 104.7 144.4 101.8 Z" id="Oval-5" sketch:type="MSShapeGroup" class="style8"/><path d="M83.1601568 101.8 C83.1601572 100.1 75.4 98.1 65.7 97.5 C56.1012857 96.8 48.3 98.8 48.3 101.8 C48.2968747 104.9 56.1 106.8 65.7 106.2 C75.3557449 105.5 83.2 103.6 83.2 101.8 Z" id="Oval-6" sketch:type="MSShapeGroup" class="style8"/></g></svg>